<?xml version="1.0" encoding="utf-8"?>
<svg viewBox="0 0 45 45" xmlns="http://www.w3.org/2000/svg">
  <g transform="matrix(1, 0, 0, 1, -0.2530819773674011, 0.2979210317134786)">
    <g transform="matrix(0.141311, 0, 0, 0.15858, 26.599302, -3.134676)" style="">
      <path d="m 64.000012,31.484944 28.902346,36.127871 28.902242,-36.127871 -7.22553,65.030147 -101.158086,0 L 6.1954237,31.484944 35.0977,67.612815 64.000012,31.484944 z" style="fill: rgb(255, 205, 0); fill-opacity: 1; fill-rule: evenodd; stroke: rgb(0, 0, 0); stroke-linecap: butt; stroke-linejoin: miter; stroke-miterlimit: 4; stroke-opacity: 1; stroke-dasharray: none; stroke-width: 6.66909px;"/>
    </g>
    <g transform="matrix(1, 0, 0, 1, 0.127914, 0.355209)">
      <g fill="#FFF" stroke="#000" stroke-width="1.5" stroke-linejoin="round" transform="matrix(1, 0, 0, 1, -0.361278, -1.280701)">
        <path fill="none" stroke-linecap="round" d="M 22.5,11.63 L 22.5,6 M 20,8 L 25,8"/>
        <path d="M 22.5,25 C 22.5,25 27,17.5 25.5,14.5 C 25.5,14.5 24.5,12 22.5,12 C 20.5,12 19.5,14.5 19.5,14.5 C 18,17.5 22.5,25 22.5,25"/>
        <path d="M 11.5,37 C 17,40.5 27,40.5 32.5,37 L 32.5,30 C 32.5,30 41.5,25.5 38.5,19.5 C 34.5,13 25,16 22.5,23.5 L 22.5,27 L 22.5,23.5 C 19,16 9.5,13 6.5,19.5 C 3.5,25.5 11.5,29.5 11.5,29.5 L 11.5,37"/>
      </g>
      <g fill="none" stroke="#000" stroke-width="1.5" stroke-linecap="round" transform="matrix(1, 0, 0, 1, -0.361278, -1.280701)">
        <path d="M 11.5,30 C 17,27 27,27 32.5,30"/>
        <path d="M 11.5,33.5 C 17,30.5 27,30.5 32.5,33.5"/>
        <path d="M 11.5,37 C 17,34 27,34 32.5,37"/>
      </g>
    </g>
  </g>
</svg>