<?xml version="1.0" encoding="utf-8"?>
<svg viewBox="100.6 0.4 45 45" xmlns="http://www.w3.org/2000/svg">
  <g transform="matrix(1, 0, 0, 1, -0.253081977367394, 0.2979210317134857)">
    <g transform="matrix(0.141311, 0, 0, 0.15858, 26.599302, -3.134676)" style="">
      <path d="m 64.000012,31.484944 28.902346,36.127871 28.902242,-36.127871 -7.22553,65.030147 -101.158086,0 L 6.1954237,31.484944 35.0977,67.612815 64.000012,31.484944 z" style="fill: rgb(255, 205, 0); fill-opacity: 1; fill-rule: evenodd; stroke: rgb(0, 0, 0); stroke-linecap: butt; stroke-linejoin: miter; stroke-miterlimit: 4; stroke-opacity: 1; stroke-dasharray: none; stroke-width: 6.66909px;"/>
    </g>
    <g transform="matrix(1, 0, 0, 1, 0.127914, 0.355209)">
      <g fill="#FFF" stroke="#000" stroke-width="1.5" stroke-linejoin="round" transform="matrix(1, 0, 0, 1, -0.361278, -1.280701)">
        <path fill="none" stroke-linecap="round" d="M 22.5,11.63 L 22.5,6 M 20,8 L 25,8"/>
        <path d="M 22.5,25 C 22.5,25 27,17.5 25.5,14.5 C 25.5,14.5 24.5,12 22.5,12 C 20.5,12 19.5,14.5 19.5,14.5 C 18,17.5 22.5,25 22.5,25"/>
        <path d="M 11.5,37 C 17,40.5 27,40.5 32.5,37 L 32.5,30 C 32.5,30 41.5,25.5 38.5,19.5 C 34.5,13 25,16 22.5,23.5 L 22.5,27 L 22.5,23.5 C 19,16 9.5,13 6.5,19.5 C 3.5,25.5 11.5,29.5 11.5,29.5 L 11.5,37"/>
      </g>
      <g fill="none" stroke="#000" stroke-width="1.5" stroke-linecap="round" transform="matrix(1, 0, 0, 1, -0.361278, -1.280701)">
        <path d="M 11.5,30 C 17,27 27,27 32.5,30"/>
        <path d="M 11.5,33.5 C 17,30.5 27,30.5 32.5,33.5"/>
        <path d="M 11.5,37 C 17,34 27,34 32.5,37"/>
      </g>
    </g>
    <g transform="matrix(0.141311, 0, 0, 0.15858, 77.951988, -2.447561)" style="">
      <path d="m 64.000012,31.484944 28.902346,36.127871 28.902242,-36.127871 -7.22553,65.030147 -101.158086,0 L 6.1954237,31.484944 35.0977,67.612815 64.000012,31.484944 z" style="fill: rgb(255, 205, 0); fill-opacity: 1; fill-rule: evenodd; stroke: rgb(0, 0, 0); stroke-linecap: butt; stroke-linejoin: miter; stroke-miterlimit: 4; stroke-opacity: 1; stroke-dasharray: none; stroke-width: 6.66909px;"/>
    </g>
    <g fill="#000" stroke="#000" stroke-width="1.5" stroke-linejoin="round" transform="matrix(1, 0, 0, 1, 51.659283, 0.253505)">
      <path fill="none" stroke-linecap="round" d="M 22.5,11.63 L 22.5,6 M 20,8 L 25,8"/>
      <path d="M 22.5,25 C 22.5,25 27,17.5 25.5,14.5 C 25.5,14.5 24.5,12 22.5,12 C 20.5,12 19.5,14.5 19.5,14.5 C 18,17.5 22.5,25 22.5,25"/>
      <path d="M 11.5,37 C 17,40.5 27,40.5 32.5,37 L 32.5,30 C 32.5,30 41.5,25.5 38.5,19.5 C 34.5,13 25,16 22.5,23.5 L 22.5,27 L 22.5,23.5 C 19,16 9.5,13 6.5,19.5 C 3.5,25.5 11.5,29.5 11.5,29.5 L 11.5,37"/>
    </g>
    <g fill="none" stroke="#FFF" stroke-width="1.5" stroke-linecap="round" stroke-linejoin="round" transform="matrix(1, 0, 0, 1, 51.659283, 0.253505)">
      <path stroke-linecap="square" d="M 22.5,20 C 22.5,20 25.75,17 24.5,14.5 C 24.5,14.5 24,13 22.5,13 C 21,13 20.5,14.5 20.5,14.5 C 19.25,17 22.5,20 22.5,20"/>
      <path d="M 32,29.5 C 32,29.5 40.5,25.5 38.03,19.85 C 34.15,14 25,18 22.5,24.5 L 22.51,26.6 L 22.5,24.5 C 20,18 9.906,14 6.997,19.85 C 4.5,25.5 11.85,28.85 11.85,28.85"/>
      <path d="M 11.5,30 C 17,27 27,27 32.5,30"/>
      <path d="M 11.5,33.5 C 17,30.5 27,30.5 32.5,33.5"/>
      <path d="M 11.5,37 C 17,34 27,34 32.5,37"/>
    </g>
    <g transform="matrix(1, 0, 0, 1, 102.299843, 0.615736)">
      <g fill="#FFF" stroke="#000" stroke-width="1.5" stroke-linejoin="round" transform="matrix(1, 0, 0, 1, -0.361278, -1.280701)">
        <path fill="none" stroke-linecap="round" d="M 22.5,11.63 L 22.5,6 M 20,8 L 25,8"/>
        <path d="M 22.5,25 C 22.5,25 27,17.5 25.5,14.5 C 25.5,14.5 24.5,12 22.5,12 C 20.5,12 19.5,14.5 19.5,14.5 C 18,17.5 22.5,25 22.5,25"/>
        <path d="M 11.5,37 C 17,40.5 27,40.5 32.5,37 L 32.5,30 C 32.5,30 41.5,25.5 38.5,19.5 C 34.5,13 25,16 22.5,23.5 L 22.5,27 L 22.5,23.5 C 19,16 9.5,13 6.5,19.5 C 3.5,25.5 11.5,29.5 11.5,29.5 L 11.5,37"/>
      </g>
      <g fill="none" stroke="#000" stroke-width="1.5" stroke-linecap="round" transform="matrix(1, 0, 0, 1, -0.361278, -1.280701)">
        <path d="M 11.5,30 C 17,27 27,27 32.5,30"/>
        <path d="M 11.5,33.5 C 17,30.5 27,30.5 32.5,33.5"/>
        <path d="M 11.5,37 C 17,34 27,34 32.5,37"/>
      </g>
    </g>
    <ellipse style="stroke: rgb(0, 0, 0); stroke-width: 1.2px;" cx="137.755" cy="7.486" rx="6.435" ry="6.026"/>
    <path style="fill: rgb(216, 216, 216); stroke: rgb(255, 255, 255);" d="M 134.663 4.194 L 140.752 11.01"/>
    <path style="fill: rgb(216, 216, 216); stroke: rgb(255, 255, 255);" d="M 140.879 4.251 L 134.858 10.965"/>
    <g fill="#000" stroke="#000" stroke-width="1.5" stroke-linejoin="round" transform="matrix(1, 0, 0, 1, 156.398392, 1.091237)">
      <path fill="none" stroke-linecap="round" d="M 22.5,11.63 L 22.5,6 M 20,8 L 25,8"/>
      <path d="M 22.5,25 C 22.5,25 27,17.5 25.5,14.5 C 25.5,14.5 24.5,12 22.5,12 C 20.5,12 19.5,14.5 19.5,14.5 C 18,17.5 22.5,25 22.5,25"/>
      <path d="M 11.5,37 C 17,40.5 27,40.5 32.5,37 L 32.5,30 C 32.5,30 41.5,25.5 38.5,19.5 C 34.5,13 25,16 22.5,23.5 L 22.5,27 L 22.5,23.5 C 19,16 9.5,13 6.5,19.5 C 3.5,25.5 11.5,29.5 11.5,29.5 L 11.5,37"/>
    </g>
    <g fill="none" stroke="#FFF" stroke-width="1.5" stroke-linecap="round" stroke-linejoin="round" transform="matrix(1, 0, 0, 1, 156.398392, 1.091237)">
      <path stroke-linecap="square" d="M 22.5,20 C 22.5,20 25.75,17 24.5,14.5 C 24.5,14.5 24,13 22.5,13 C 21,13 20.5,14.5 20.5,14.5 C 19.25,17 22.5,20 22.5,20"/>
      <path d="M 32,29.5 C 32,29.5 40.5,25.5 38.03,19.85 C 34.15,14 25,18 22.5,24.5 L 22.51,26.6 L 22.5,24.5 C 20,18 9.906,14 6.997,19.85 C 4.5,25.5 11.85,28.85 11.85,28.85"/>
      <path d="M 11.5,30 C 17,27 27,27 32.5,30"/>
      <path d="M 11.5,33.5 C 17,30.5 27,30.5 32.5,33.5"/>
      <path d="M 11.5,37 C 17,34 27,34 32.5,37"/>
    </g>
    <ellipse style="stroke: rgb(0, 0, 0); stroke-width: 1.2px;" cx="192.572" cy="8.571" rx="6.435" ry="6.026"/>
    <path style="fill: rgb(216, 216, 216); stroke: rgb(255, 255, 255);" d="M 189.48 5.279 L 195.569 12.095"/>
    <path style="fill: rgb(216, 216, 216); stroke: rgb(255, 255, 255);" d="M 195.696 5.336 L 189.675 12.05"/>
  </g>
</svg>